<svg xmlns="http://www.w3.org/2000/svg" width="25" height="25" viewBox="0 0 25 25" fill="none">
    <path d="M11.2756 18.3956C11.37 18.3957 11.4634 18.4145 11.5505 18.4507C11.6376 18.4869 11.7167 18.5399 11.7833 18.6067C11.8499 18.6735 11.9027 18.7528 11.9387 18.84C11.9747 18.9272 11.9931 19.0206 11.993 19.115C11.9928 19.2093 11.9741 19.3027 11.9379 19.3898C11.9017 19.4769 11.8487 19.556 11.7819 19.6226C11.7151 19.6892 11.6358 19.742 11.5486 19.778C11.4614 19.814 11.3679 19.8324 11.2736 19.8323C11.0831 19.832 10.9005 19.7561 10.766 19.6212C10.6314 19.4863 10.556 19.3035 10.5563 19.1129C10.5565 18.9224 10.6325 18.7398 10.7674 18.6053C10.9023 18.4708 11.0851 18.3953 11.2756 18.3956ZM22.5403 13.9537C22.446 13.9536 22.3526 13.935 22.2655 13.8988C22.1784 13.8627 22.0992 13.8097 22.0325 13.7429C21.9659 13.6762 21.913 13.597 21.877 13.5098C21.841 13.4226 21.8224 13.3292 21.8225 13.2348C21.8226 13.1405 21.8412 13.0471 21.8774 12.96C21.9135 12.8728 21.9665 12.7937 22.0333 12.727C22.1 12.6604 22.1793 12.6075 22.2664 12.5715C22.3536 12.5354 22.447 12.5169 22.5414 12.517C22.7319 12.5171 22.9145 12.5929 23.0492 12.7278C23.1838 12.8626 23.2593 13.0453 23.2592 13.2359C23.2591 13.4264 23.1833 13.609 23.0484 13.7437C22.9136 13.8783 22.7309 13.9538 22.5403 13.9537ZM22.5403 11.0149C21.9513 11.0154 21.3866 11.2497 20.9701 11.6662C20.5536 12.0826 20.3194 12.6474 20.3189 13.2364C20.3189 13.4745 20.3587 13.7115 20.4364 13.9425L13.0986 17.8489C12.8951 17.5535 12.6229 17.312 12.3053 17.1452C11.9877 16.9784 11.6344 16.8913 11.2756 16.8915C10.4285 16.8915 9.65706 17.3768 9.28307 18.134L2.69122 14.6577C1.99433 14.2919 1.47319 13.1454 1.52837 12.1011C1.55698 11.5565 1.745 11.1334 2.03214 10.9699C2.21402 10.8678 2.4327 10.8759 2.66567 10.9975L2.70859 11.021C4.45593 11.9407 10.1721 14.952 10.4132 15.0634C10.7841 15.2361 10.9906 15.3056 11.6241 15.0052L23.4406 8.85986C23.6143 8.79446 23.8166 8.6279 23.8166 8.37551C23.8166 8.02604 23.4549 7.88809 23.4539 7.88809C22.7815 7.56621 21.7484 7.08289 20.7409 6.6108C18.5869 5.60225 16.1457 4.45984 15.0738 3.89783C14.148 3.41348 13.4031 3.82221 13.2703 3.90396L13.0128 4.03169C8.18767 6.41767 1.72967 9.61601 1.36181 9.8398C0.704775 10.2404 0.297063 11.0384 0.243928 12.0286C0.162181 13.5991 0.962277 15.2371 2.10775 15.8369L9.07871 19.4318C9.1555 19.9598 9.41971 20.4426 9.82308 20.7919C10.2264 21.1413 10.742 21.3338 11.2756 21.3344C11.8584 21.3334 12.4176 21.1038 12.8328 20.6948C13.248 20.2859 13.4862 19.7304 13.4961 19.1477L21.1742 14.9858C21.5625 15.2903 22.0458 15.4568 22.5403 15.4568C23.1294 15.4563 23.6941 15.2221 24.1106 14.8056C24.5271 14.3891 24.7613 13.8244 24.7618 13.2354C24.7613 12.6463 24.5271 12.0816 24.1106 11.6651C23.6941 11.2486 23.1294 11.0144 22.5403 11.0139" fill="white"/>
    </svg>